<?xml version="1.0" encoding="UTF-8" standalone="no"?><svg xmlns="http://www.w3.org/2000/svg" xmlns:xlink="http://www.w3.org/1999/xlink" contentScriptType="application/ecmascript" contentStyleType="text/css" height="570px" preserveAspectRatio="none" style="width:1088px;height:570px;" version="1.1" viewBox="0 0 1088 570" width="1088px" zoomAndPan="magnify"><defs><filter height="300%" id="f1zr4zd3ztiwm" width="300%" x="-1" y="-1"><feGaussianBlur result="blurOut" stdDeviation="2.0"/><feColorMatrix in="blurOut" result="blurOut2" type="matrix" values="0 0 0 0 0 0 0 0 0 0 0 0 0 0 0 0 0 0 .4 0"/><feOffset dx="4.0" dy="4.0" in="blurOut2" result="blurOut3"/><feBlend in="SourceGraphic" in2="blurOut3" mode="normal"/></filter></defs><g><ellipse cx="87.5" cy="25" fill="#000000" filter="url(#f1zr4zd3ztiwm)" rx="10" ry="10" style="stroke: none; stroke-width: 1.0;"/><rect fill="#F8F8F8" filter="url(#f1zr4zd3ztiwm)" height="33.9688" rx="12.5" ry="12.5" style="stroke: #383838; stroke-width: 1.5;" width="53" x="118" y="8"/><text fill="#000000" font-family="sans-serif" font-size="12" lengthAdjust="spacingAndGlyphs" textLength="33" x="128" y="29.1387">value</text><rect fill="#F8F8F8" filter="url(#f1zr4zd3ztiwm)" height="33.9688" rx="12.5" ry="12.5" style="stroke: #383838; stroke-width: 1.5;" width="74" x="191.5" y="8"/><text fill="#000000" font-family="sans-serif" font-size="12" lengthAdjust="spacingAndGlyphs" textLength="54" x="201.5" y="29.1387">meaning</text><rect fill="#F8F8F8" filter="url(#f1zr4zd3ztiwm)" height="33.9688" rx="12.5" ry="12.5" style="stroke: #383838; stroke-width: 1.5;" width="152" x="345.5" y="8"/><text fill="#000000" font-family="sans-serif" font-size="12" lengthAdjust="spacingAndGlyphs" textLength="132" x="355.5" y="29.1387">expression_to_action</text><polygon fill="#F8F8F8" filter="url(#f1zr4zd3ztiwm)" points="551.5,83,563.5,95,551.5,107,539.5,95,551.5,83" style="stroke: #383838; stroke-width: 1.5;"/><rect fill="#F8F8F8" filter="url(#f1zr4zd3ztiwm)" height="33.9688" rx="12.5" ry="12.5" style="stroke: #383838; stroke-width: 1.5;" width="116" x="656.5" y="161"/><text fill="#000000" font-family="sans-serif" font-size="12" lengthAdjust="spacingAndGlyphs" textLength="96" x="666.5" y="182.1387">atom_to_action</text><polygon fill="#F8F8F8" filter="url(#f1zr4zd3ztiwm)" points="822.5,166,834.5,178,822.5,190,810.5,178,822.5,166" style="stroke: #383838; stroke-width: 1.5;"/><rect fill="#F8F8F8" filter="url(#f1zr4zd3ztiwm)" height="33.9688" rx="12.5" ry="12.5" style="stroke: #383838; stroke-width: 1.5;" width="61" x="792" y="262"/><text fill="#000000" font-family="sans-serif" font-size="12" lengthAdjust="spacingAndGlyphs" textLength="41" x="802" y="283.1387">_const</text><rect fill="#F8F8F8" filter="url(#f1zr4zd3ztiwm)" height="33.9688" rx="12.5" ry="12.5" style="stroke: #383838; stroke-width: 1.5;" width="112" x="766.5" y="350"/><text fill="#000000" font-family="sans-serif" font-size="12" lengthAdjust="spacingAndGlyphs" textLength="92" x="776.5" y="371.1387">build 'primitive'</text><rect fill="#F8F8F8" filter="url(#f1zr4zd3ztiwm)" height="33.9688" rx="12.5" ry="12.5" style="stroke: #383838; stroke-width: 1.5;" width="81" x="894" y="262"/><text fill="#000000" font-family="sans-serif" font-size="12" lengthAdjust="spacingAndGlyphs" textLength="61" x="904" y="283.1387">_identifier</text><rect fill="#F8F8F8" filter="url(#f1zr4zd3ztiwm)" height="33.9688" rx="12.5" ry="12.5" style="stroke: #383838; stroke-width: 1.5;" width="117" x="899" y="350"/><text fill="#000000" font-family="sans-serif" font-size="12" lengthAdjust="spacingAndGlyphs" textLength="97" x="909" y="371.1387">lookup_in_table</text><rect fill="#F8F8F8" filter="url(#f1zr4zd3ztiwm)" height="33.9688" rx="12.5" ry="12.5" style="stroke: #383838; stroke-width: 1.5;" width="117" x="849" y="438"/><text fill="#000000" font-family="sans-serif" font-size="12" lengthAdjust="spacingAndGlyphs" textLength="97" x="859" y="459.1387">lookup_in_entry</text><rect fill="#F8F8F8" filter="url(#f1zr4zd3ztiwm)" height="33.9688" rx="12.5" ry="12.5" style="stroke: #383838; stroke-width: 1.5;" width="150" x="906.5" y="526"/><text fill="#000000" font-family="sans-serif" font-size="12" lengthAdjust="spacingAndGlyphs" textLength="130" x="916.5" y="547.1387">lookup_in_entry_help</text><rect fill="#F8F8F8" filter="url(#f1zr4zd3ztiwm)" height="33.9688" rx="12.5" ry="12.5" style="stroke: #383838; stroke-width: 1.5;" width="102" x="500.5" y="161"/><text fill="#000000" font-family="sans-serif" font-size="12" lengthAdjust="spacingAndGlyphs" textLength="82" x="510.5" y="182.1387">list_to_aciton</text><ellipse cx="527.5" cy="25" fill="none" filter="url(#f1zr4zd3ztiwm)" rx="10" ry="10" style="stroke: #000000; stroke-width: 1.0;"/><ellipse cx="528" cy="25.5" fill="#000000" rx="6" ry="6" style="stroke: none; stroke-width: 1.0;"/><rect fill="#F8F8F8" filter="url(#f1zr4zd3ztiwm)" height="33.9688" rx="12.5" ry="12.5" style="stroke: #383838; stroke-width: 1.5;" width="63" x="587" y="262"/><text fill="#000000" font-family="sans-serif" font-size="12" lengthAdjust="spacingAndGlyphs" textLength="43" x="597" y="283.1387">_quote</text><rect fill="#F8F8F8" filter="url(#f1zr4zd3ztiwm)" height="33.9688" rx="12.5" ry="12.5" style="stroke: #383838; stroke-width: 1.5;" width="72" x="670.5" y="262"/><text fill="#000000" font-family="sans-serif" font-size="12" lengthAdjust="spacingAndGlyphs" textLength="52" x="680.5" y="283.1387">_lambda</text><rect fill="#F8F8F8" filter="url(#f1zr4zd3ztiwm)" height="33.9688" rx="12.5" ry="12.5" style="stroke: #383838; stroke-width: 1.5;" width="140" x="606.5" y="350"/><text fill="#000000" font-family="sans-serif" font-size="12" lengthAdjust="spacingAndGlyphs" textLength="120" x="616.5" y="371.1387">build 'non-primitive'</text><rect fill="#F8F8F8" filter="url(#f1zr4zd3ztiwm)" height="33.9688" rx="12.5" ry="12.5" style="stroke: #383838; stroke-width: 1.5;" width="57" x="510" y="262"/><text fill="#000000" font-family="sans-serif" font-size="12" lengthAdjust="spacingAndGlyphs" textLength="37" x="520" y="283.1387">_cond</text><rect fill="#F8F8F8" filter="url(#f1zr4zd3ztiwm)" height="33.9688" rx="12.5" ry="12.5" style="stroke: #383838; stroke-width: 1.5;" width="57" x="395" y="350"/><text fill="#000000" font-family="sans-serif" font-size="12" lengthAdjust="spacingAndGlyphs" textLength="37" x="405" y="371.1387">evcon</text><polygon fill="#F8F8F8" filter="url(#f1zr4zd3ztiwm)" points="365.5,443,377.5,455,365.5,467,353.5,455,365.5,443" style="stroke: #383838; stroke-width: 1.5;"/><polygon fill="#F8F8F8" filter="url(#f1zr4zd3ztiwm)" points="365.5,531,377.5,543,365.5,555,353.5,543,365.5,531" style="stroke: #383838; stroke-width: 1.5;"/><rect fill="#F8F8F8" filter="url(#f1zr4zd3ztiwm)" height="33.9688" rx="12.5" ry="12.5" style="stroke: #383838; stroke-width: 1.5;" width="95" x="395" y="262"/><text fill="#000000" font-family="sans-serif" font-size="12" lengthAdjust="spacingAndGlyphs" textLength="75" x="405" y="283.1387">_application</text><rect fill="#F8F8F8" filter="url(#f1zr4zd3ztiwm)" height="33.9688" rx="12.5" ry="12.5" style="stroke: #383838; stroke-width: 1.5;" width="53" x="144" y="350"/><text fill="#000000" font-family="sans-serif" font-size="12" lengthAdjust="spacingAndGlyphs" textLength="33" x="154" y="371.1387">apply</text><rect fill="#F8F8F8" filter="url(#f1zr4zd3ztiwm)" height="33.9688" rx="12.5" ry="12.5" style="stroke: #383838; stroke-width: 1.5;" width="47" x="76" y="438"/><text fill="#000000" font-family="sans-serif" font-size="12" lengthAdjust="spacingAndGlyphs" textLength="27" x="86" y="459.1387">evlis</text><polygon fill="#F8F8F8" filter="url(#f1zr4zd3ztiwm)" points="173.5,443,185.5,455,173.5,467,161.5,455,173.5,443" style="stroke: #383838; stroke-width: 1.5;"/><rect fill="#F8F8F8" filter="url(#f1zr4zd3ztiwm)" height="33.9688" rx="12.5" ry="12.5" style="stroke: #383838; stroke-width: 1.5;" width="111" x="144" y="526"/><text fill="#000000" font-family="sans-serif" font-size="12" lengthAdjust="spacingAndGlyphs" textLength="91" x="154" y="547.1387">apply_primitive</text><rect fill="#F8F8F8" filter="url(#f1zr4zd3ztiwm)" height="33.9688" rx="12.5" ry="12.5" style="stroke: #383838; stroke-width: 1.5;" width="105" x="6" y="526"/><text fill="#000000" font-family="sans-serif" font-size="12" lengthAdjust="spacingAndGlyphs" textLength="85" x="16" y="547.1387">apply_closure</text><!--link start to value--><path d="M97.7422,25 C102.765,25 107.788,25 112.811,25 " fill="none" id="start-&gt;value" style="stroke: #383838; stroke-width: 1.0;"/><polygon fill="#383838" points="117.833,25,108.833,21,112.833,25,108.833,29,117.833,25" style="stroke: #383838; stroke-width: 1.0;"/><!--link value to meaning--><path d="M171.078,25 C176.125,25 181.172,25 186.219,25 " fill="none" id="value-&gt;meaning" style="stroke: #383838; stroke-width: 1.0;"/><polygon fill="#383838" points="191.266,25,182.266,21,186.266,25,182.266,29,191.266,25" style="stroke: #383838; stroke-width: 1.0;"/><!--link meaning to expression_to_action--><path d="M265.818,25 C290.61,25 315.402,25 340.193,25 " fill="none" id="meaning-&gt;expression_to_action" style="stroke: #383838; stroke-width: 1.0;"/><polygon fill="#383838" points="345.484,25,336.484,21,340.484,25,336.484,29,345.484,25" style="stroke: #383838; stroke-width: 1.0;"/><!--link expression_to_action to #865766--><path d="M452.308,42.115 C480.272,56.742 520.039,77.544 539.641,87.797 " fill="none" id="expression_to_action-&gt;#865766" style="stroke: #383838; stroke-width: 1.0;"/><polygon fill="#383838" points="544.171,90.166,538.05,82.4502,539.7405,87.8486,534.3421,89.5391,544.171,90.166" style="stroke: #383838; stroke-width: 1.0;"/><text fill="#000000" font-family="sans-serif" font-size="11" lengthAdjust="spacingAndGlyphs" textLength="55" x="476.3278" y="84.5298">is_atom ?</text><!--link #865766 to atom_to_action--><path d="M558.927,99.691 C579.515,109.922 638.367,139.167 677.493,158.61 " fill="none" id="#865766-&gt;atom_to_action" style="stroke: #383838; stroke-width: 1.0;"/><polygon fill="#383838" points="682.163,160.93,675.8845,153.3418,677.6857,158.7042,672.3233,160.5054,682.163,160.93" style="stroke: #383838; stroke-width: 1.0;"/><text fill="#000000" font-family="sans-serif" font-size="11" lengthAdjust="spacingAndGlyphs" textLength="23" x="638.5" y="138.2104">true</text><!--link atom_to_action to #865771--><path d="M772.719,178 C783.624,178 794.528,178 805.433,178 " fill="none" id="atom_to_action-&gt;#865771" style="stroke: #383838; stroke-width: 1.0;"/><polygon fill="#383838" points="810.444,178,801.444,174,805.444,178,801.444,182,810.444,178" style="stroke: #383838; stroke-width: 1.0;"/><text fill="#000000" font-family="sans-serif" font-size="11" lengthAdjust="spacingAndGlyphs" textLength="73" x="842.8323" y="168.7936">Is Primitive ?</text><!--link #865771 to _const--><path d="M822.5,190.357 C822.5,206.488 822.5,236.333 822.5,256.67 " fill="none" id="#865771-&gt;_const" style="stroke: #383838; stroke-width: 1.0;"/><polygon fill="#383838" points="822.5,261.877,826.5,252.877,822.5,256.877,818.5,252.877,822.5,261.877" style="stroke: #383838; stroke-width: 1.0;"/><text fill="#000000" font-family="sans-serif" font-size="11" lengthAdjust="spacingAndGlyphs" textLength="23" x="823.5" y="232.7104">true</text><!--link _const to build 'primitive'--><path d="M822.5,296.176 C822.5,309.87 822.5,329.606 822.5,344.605 " fill="none" id="_const-&gt;build 'primitive'" style="stroke: #383838; stroke-width: 1.0;"/><polygon fill="#383838" points="822.5,349.897,826.5,340.897,822.5,344.897,818.5,340.897,822.5,349.897" style="stroke: #383838; stroke-width: 1.0;"/><text fill="#000000" font-family="sans-serif" font-size="11" lengthAdjust="spacingAndGlyphs" textLength="108" x="823.5" y="327.2104">no Number or Bool</text><!--link #865771 to _identifier--><path d="M828.522,184.323 C844.048,198.047 886.057,235.18 912.283,258.361 " fill="none" id="#865771-&gt;_identifier" style="stroke: #383838; stroke-width: 1.0;"/><polygon fill="#383838" points="916.35,261.956,912.2565,252.9981,912.604,258.6443,906.9578,258.9918,916.35,261.956" style="stroke: #383838; stroke-width: 1.0;"/><text fill="#000000" font-family="sans-serif" font-size="11" lengthAdjust="spacingAndGlyphs" textLength="28" x="892.5" y="232.7104">false</text><!--link _identifier to lookup_in_table--><path d="M938.826,296.176 C942.521,309.99 947.86,329.953 951.883,344.999 " fill="none" id="_identifier-&gt;lookup_in_table" style="stroke: #383838; stroke-width: 1.0;"/><polygon fill="#383838" points="953.193,349.897,954.7298,340.1688,951.9002,345.067,947.0019,342.2373,953.193,349.897" style="stroke: #383838; stroke-width: 1.0;"/><!--link lookup_in_table to lookup_in_entry--><path d="M948.095,384.176 C939.994,398.11 928.255,418.301 919.483,433.39 " fill="none" id="lookup_in_table-&gt;lookup_in_entry" style="stroke: #383838; stroke-width: 1.0;"/><polygon fill="#383838" points="916.862,437.897,924.8454,432.1294,919.3765,433.5753,917.9306,428.1063,916.862,437.897" style="stroke: #383838; stroke-width: 1.0;"/><!--link lookup_in_entry to lookup_in_entry_help--><path d="M921.419,472.1759 C933.512,486.2301 951.082,506.6494 964.101,521.7792 " fill="none" id="lookup_in_entry-&gt;lookup_in_entry_help" style="stroke: #383838; stroke-width: 1.0;"/><polygon fill="#383838" points="967.644,525.8966,964.8059,516.4655,964.3828,522.1065,958.7418,521.6834,967.644,525.8966" style="stroke: #383838; stroke-width: 1.0;"/><!--link lookup_in_entry_help to lookup_in_entry_help--><path d="M1056.76,535.4393 C1068.5,536.5696 1076.5,539.0898 1076.5,543 C1076.5,546.2992 1070.8,548.6089 1061.97,549.929 " fill="none" id="lookup_in_entry_help-&gt;lookup_in_entry_help" style="stroke: #383838; stroke-width: 1.0;"/><polygon fill="#383838" points="1056.76,550.5607,1066.175,553.4517,1061.7239,549.9606,1065.2149,545.5095,1056.76,550.5607" style="stroke: #383838; stroke-width: 1.0;"/><!--link lookup_in_entry_help to lookup_in_table--><path d="M981.804,525.6761 C981.938,505.1015 981.347,468.7113 976.5,438 C973.86,421.272 968.75,402.802 964.494,389.036 " fill="none" id="lookup_in_entry_help-&gt;lookup_in_table" style="stroke: #383838; stroke-width: 1.0;"/><polygon fill="#383838" points="962.971,384.189,961.8551,393.9744,964.4709,388.9587,969.4866,391.5746,962.971,384.189" style="stroke: #383838; stroke-width: 1.0;"/><text fill="#000000" font-family="sans-serif" font-size="11" lengthAdjust="spacingAndGlyphs" textLength="54" x="980.5" y="459.2104">not found</text><!--link #865766 to list_to_aciton--><path d="M551.5,107.263 C551.5,119.76 551.5,140.211 551.5,155.743 " fill="none" id="#865766-&gt;list_to_aciton" style="stroke: #383838; stroke-width: 1.0;"/><polygon fill="#383838" points="551.5,160.803,555.5,151.803,551.5,155.803,547.5,151.803,551.5,160.803" style="stroke: #383838; stroke-width: 1.0;"/><text fill="#000000" font-family="sans-serif" font-size="11" lengthAdjust="spacingAndGlyphs" textLength="28" x="552.5" y="138.2104">false</text><!--link expression_to_action to end--><path d="M497.688,25 C502.477,25 507.266,25 512.055,25 " fill="none" id="expression_to_action-&gt;end" style="stroke: #383838; stroke-width: 1.0;"/><polygon fill="#383838" points="517.252,25,508.252,21,512.252,25,508.252,29,517.252,25" style="stroke: #383838; stroke-width: 1.0;"/><!--link list_to_aciton to _quote--><path d="M562.564,195.348 C574.076,212.359 592.132,239.038 604.6,257.461 " fill="none" id="list_to_aciton-&gt;_quote" style="stroke: #383838; stroke-width: 1.0;"/><polygon fill="#383838" points="607.642,261.956,605.9126,252.2602,604.8405,257.8145,599.2862,256.7425,607.642,261.956" style="stroke: #383838; stroke-width: 1.0;"/><!--link list_to_aciton to _lambda--><path d="M576.748,195.126 C604.108,212.601 647.73,240.463 676.737,258.99 " fill="none" id="list_to_aciton-&gt;_lambda" style="stroke: #383838; stroke-width: 1.0;"/><polygon fill="#383838" points="681.262,261.881,675.8299,253.6657,677.0481,259.1898,671.5239,260.408,681.262,261.881" style="stroke: #383838; stroke-width: 1.0;"/><!--link _lambda to build 'non-primitive'--><path d="M700.857,296.176 C696.038,309.99 689.074,329.953 683.826,344.999 " fill="none" id="_lambda-&gt;build 'non-primitive'" style="stroke: #383838; stroke-width: 1.0;"/><polygon fill="#383838" points="682.117,349.897,688.8583,342.7169,683.764,345.176,681.3048,340.0817,682.117,349.897" style="stroke: #383838; stroke-width: 1.0;"/><!--link list_to_aciton to _cond--><path d="M549.353,195.348 C547.138,212.215 543.675,238.587 541.259,256.991 " fill="none" id="list_to_aciton-&gt;_cond" style="stroke: #383838; stroke-width: 1.0;"/><polygon fill="#383838" points="540.607,261.956,545.7455,253.5539,541.2585,256.9986,537.8137,252.5116,540.607,261.956" style="stroke: #383838; stroke-width: 1.0;"/><!--link _cond to evcon--><path d="M516.869,296.176 C497.675,310.53 469.6,331.525 449.252,346.742 " fill="none" id="_cond-&gt;evcon" style="stroke: #383838; stroke-width: 1.0;"/><polygon fill="#383838" points="445.034,349.897,454.6371,347.7107,449.0383,346.9027,449.8463,341.3039,445.034,349.897" style="stroke: #383838; stroke-width: 1.0;"/><!--link evcon to #865802--><path d="M412.591,384.176 C401.052,401.285 383.152,427.827 373.07,442.775 " fill="none" id="evcon-&gt;#865802" style="stroke: #383838; stroke-width: 1.0;"/><polygon fill="#383838" points="370.208,447.019,378.5564,441.7936,373.0035,442.8735,371.9236,437.3207,370.208,447.019" style="stroke: #383838; stroke-width: 1.0;"/><text fill="#000000" font-family="sans-serif" font-size="11" lengthAdjust="spacingAndGlyphs" textLength="50" x="385.4334" y="438.2704">is_else ?</text><!--link #865802 to meaning--><path d="M365.086,443.141 C364.5,426.83 363.5,395.032 363.5,368 C363.5,94 363.5,94 363.5,94 C363.5,51.932 310.566,35.885 270.99,29.767 " fill="none" id="#865802-&gt;meaning" style="stroke: #383838; stroke-width: 1.0;"/><polygon fill="#383838" points="265.747,29.001,274.0741,34.2602,270.6945,29.7239,275.2308,26.3443,265.747,29.001" style="stroke: #383838; stroke-width: 1.0;"/><text fill="#000000" font-family="sans-serif" font-size="11" lengthAdjust="spacingAndGlyphs" textLength="23" x="384.5" y="226.2104">true</text><text fill="#000000" font-family="sans-serif" font-size="11" lengthAdjust="spacingAndGlyphs" textLength="59" x="368.5" y="239.0151">answer_of</text><!--link #865802 to #865806--><path d="M365.5,467.243 C365.5,482.0509 365.5,508.2113 365.5,525.3263 " fill="none" id="#865802-&gt;#865806" style="stroke: #383838; stroke-width: 1.0;"/><polygon fill="#383838" points="365.5,530.7542,369.5,521.7542,365.5,525.7542,361.5,521.7542,365.5,530.7542" style="stroke: #383838; stroke-width: 1.0;"/><text fill="#000000" font-family="sans-serif" font-size="11" lengthAdjust="spacingAndGlyphs" textLength="28" x="366.5" y="503.2104">false</text><text fill="#000000" font-family="sans-serif" font-size="11" lengthAdjust="spacingAndGlyphs" textLength="129" x="385.2531" y="523.5001">meaning question_of ?</text><!--link #865806 to meaning--><path d="M357.145,539.2721 C333.445,530.9537 267.5,503.5359 267.5,456 C267.5,94 267.5,94 267.5,94 C267.5,76.271 257.401,58.976 247.481,46.265 " fill="none" id="#865806-&gt;meaning" style="stroke: #383838; stroke-width: 1.0;"/><polygon fill="#383838" points="244.138,42.136,246.692,51.6479,247.2841,46.0222,252.9099,46.6142,244.138,42.136" style="stroke: #383838; stroke-width: 1.0;"/><text fill="#000000" font-family="sans-serif" font-size="11" lengthAdjust="spacingAndGlyphs" textLength="23" x="288.5" y="276.7104">true</text><text fill="#000000" font-family="sans-serif" font-size="11" lengthAdjust="spacingAndGlyphs" textLength="59" x="272.5" y="289.5151">answer_of</text><!--link #865806 to evcon--><path d="M372.146,537.2372 C380.26,531.0312 393.733,519.3794 400.5,506 C419.615,468.205 423.361,417.871 423.806,389.615 " fill="none" id="#865806-&gt;evcon" style="stroke: #383838; stroke-width: 1.0;"/><polygon fill="#383838" points="423.855,384.269,419.7729,393.2321,423.8093,389.2688,427.7726,393.3052,423.855,384.269" style="stroke: #383838; stroke-width: 1.0;"/><text fill="#000000" font-family="sans-serif" font-size="11" lengthAdjust="spacingAndGlyphs" textLength="28" x="420.5" y="459.2104">false</text><!--link list_to_aciton to _application--><path d="M533.501,195.348 C514.454,212.647 484.399,239.945 464.09,258.391 " fill="none" id="list_to_aciton-&gt;_application" style="stroke: #383838; stroke-width: 1.0;"/><polygon fill="#383838" points="460.164,261.956,469.5158,258.8666,463.8654,258.5946,464.1374,252.9442,460.164,261.956" style="stroke: #383838; stroke-width: 1.0;"/><!--link _application to apply--><path d="M394.81,295.078 C339.39,312.601 249.5,341.022 202.09,356.012 " fill="none" id="_application-&gt;apply" style="stroke: #383838; stroke-width: 1.0;"/><polygon fill="#383838" points="197.08,357.596,206.8671,358.6969,201.8474,356.0888,204.4556,351.0691,197.08,357.596" style="stroke: #383838; stroke-width: 1.0;"/><!--link apply to meaning--><path d="M169.9,349.835 C169.311,332.552 168.5,304.343 168.5,280 C168.5,94 168.5,94 168.5,94 C168.5,74.14 183.067,57.342 197.846,45.41 " fill="none" id="apply-&gt;meaning" style="stroke: #383838; stroke-width: 1.0;"/><polygon fill="#383838" points="202.008,42.175,192.4475,44.5409,198.0605,45.2438,197.3576,50.8568,202.008,42.175" style="stroke: #383838; stroke-width: 1.0;"/><text fill="#000000" font-family="sans-serif" font-size="11" lengthAdjust="spacingAndGlyphs" textLength="26" x="189.5" y="175.7104">arg1</text><text fill="#000000" font-family="sans-serif" font-size="11" lengthAdjust="spacingAndGlyphs" textLength="62" x="173.5" y="188.5151">function_of</text><!--link apply to evlis--><path d="M156.486,384.023 C151.122,390.221 144.979,397.4 139.5,404 C131.568,413.556 122.941,424.294 115.736,433.362 " fill="none" id="apply-&gt;evlis" style="stroke: #383838; stroke-width: 1.0;"/><polygon fill="#383838" points="112.323,437.667,121.048,433.0982,115.4287,433.7485,114.7784,428.1291,112.323,437.667" style="stroke: #383838; stroke-width: 1.0;"/><text fill="#000000" font-family="sans-serif" font-size="11" lengthAdjust="spacingAndGlyphs" textLength="26" x="140.5" y="415.2104">arg2</text><!--link evlis to evlis--><path d="M123.215,446.879 C133.824,446.105 143,448.812 143,455 C143,460.124 136.707,462.8612 128.519,463.2114 " fill="none" id="evlis-&gt;evlis" style="stroke: #383838; stroke-width: 1.0;"/><polygon fill="#383838" points="123.215,463.1211,132.1451,467.2748,128.2143,463.2068,132.2822,459.276,123.215,463.1211" style="stroke: #383838; stroke-width: 1.0;"/><!--link evlis to meaning--><path d="M96.4997,437.898 C93.5541,420.667 89.5,392.501 89.5,368 C89.5,94 89.5,94 89.5,94 C89.5,83.093 145.437,58.659 186.341,42.25 " fill="none" id="evlis-&gt;meaning" style="stroke: #383838; stroke-width: 1.0;"/><polygon fill="#383838" points="191.251,40.29,181.4093,39.9134,186.6076,42.1445,184.3765,47.3428,191.251,40.29" style="stroke: #383838; stroke-width: 1.0;"/><text fill="#000000" font-family="sans-serif" font-size="11" font-style="italic" lengthAdjust="spacingAndGlyphs" textLength="61" x="90.5" y="232.7104">arguments</text><!--link apply to #865820--><path d="M171.064,384.176 C171.602,399.603 172.408,422.7 172.944,438.051 " fill="none" id="apply-&gt;#865820" style="stroke: #383838; stroke-width: 1.0;"/><polygon fill="#383838" points="173.128,443.328,176.8119,434.194,172.9537,438.331,168.8167,434.4729,173.128,443.328" style="stroke: #383838; stroke-width: 1.0;"/><text fill="#000000" font-family="sans-serif" font-size="11" lengthAdjust="spacingAndGlyphs" textLength="75" x="193.0843" y="432.256">is_primitive ?</text><!--link #865820 to apply_primitive--><path d="M176.088,464.5604 C180.033,477.6088 187.669,502.8676 193.149,520.9928 " fill="none" id="#865820-&gt;apply_primitive" style="stroke: #383838; stroke-width: 1.0;"/><polygon fill="#383838" points="194.632,525.8997,195.8569,516.1273,193.1853,521.1136,188.199,518.442,194.632,525.8997" style="stroke: #383838; stroke-width: 1.0;"/><text fill="#000000" font-family="sans-serif" font-size="11" lengthAdjust="spacingAndGlyphs" textLength="23" x="189.5" y="503.2104">true</text><!--link #865820 to apply_closure--><path d="M167.38,461.0336 C162.921,464.5008 156.616,469.0052 150.5,472 C123.735,485.1056 109.642,473.2244 86.5,492 C77.2046,499.5414 70.4619,511.038 65.9256,521.1064 " fill="none" id="#865820-&gt;apply_closure" style="stroke: #383838; stroke-width: 1.0;"/><polygon fill="#383838" points="63.8744,525.9107,71.0871,519.2042,65.8377,521.3123,63.7296,516.0629,63.8744,525.9107" style="stroke: #383838; stroke-width: 1.0;"/><text fill="#000000" font-family="sans-serif" font-size="11" lengthAdjust="spacingAndGlyphs" textLength="92" x="87.5" y="503.2104">is_non_primitive</text><!--link apply_closure to meaning--><path d="M54.2995,525.9594 C50.1758,508.7803 44.5,480.6572 44.5,456 C44.5,94 44.5,94 44.5,94 C44.5,90.24 132.13,59.284 186.442,40.46 " fill="none" id="apply_closure-&gt;meaning" style="stroke: #383838; stroke-width: 1.0;"/><polygon fill="#383838" points="191.265,38.79,181.4515,37.9565,186.5405,40.4267,184.0702,45.5157,191.265,38.79" style="stroke: #383838; stroke-width: 1.0;"/><!--
@startuml
skinparam monochrome true

(*) -> "value"
-> "meaning"
-> "expression_to_action" as expression_to_action
if "is_atom ?" then
    - -> [true] "atom_to_action"
    -right- -> if "Is Primitive ?" then
        - -> [true] "_const"
        - -> [no Number or Bool] "build 'primitive'"
    else 
        - -> [false] "_identifier"
        - -> "lookup_in_table"
        - -> "lookup_in_entry"
        - -> "lookup_in_entry_help"
        - -> "lookup_in_entry_help"
        - -> [not found] "lookup_in_table"
    endif
else 
    - -> [false] "list_to_aciton" as list_to_aciton
endif

expression_to_action -> (*)

list_to_aciton - -> "_quote"

list_to_aciton - -> "_lambda"
- -> "build 'non-primitive'"

list_to_aciton - -> "_cond"
- -> "evcon"
if "is_else ?" then
    - -> [true\n answer_of] "meaning"
else 
    - -> [false] if "meaning question_of ?" then
        - -> [true\n answer_of] "meaning"
    else
        - -> [false] "evcon"
    endif
endif

list_to_aciton - -> "_application"
- -> "apply" as apply

apply - -> [arg1\n function_of] "meaning"

apply - -> [arg2] "evlis"
- -> "evlis"
- -> [<i>arguments</i>] "meaning"

apply - -> if "is_primitive ?" then
    - -> [true] "apply_primitive"
else
    - -> [is_non_primitive] "apply_closure"
    - -> "meaning"
endif
@enduml

PlantUML version 1.2019.10beta5(Unknown compile time)
(GPL source distribution)
Java Runtime: Java(TM) SE Runtime Environment
JVM: Java HotSpot(TM) 64-Bit Server VM
Java Version: 1.7.0_25-b15
Operating System: Linux
Default Encoding: UTF-8
Language: en
Country: US
--></g></svg>